<mxfile host="drawio.corp.amazon.com" modified="2024-02-18T22:37:27.672Z" agent="Mozilla/5.0 (Macintosh; Intel Mac OS X 10.15; rv:109.0) Gecko/20100101 Firefox/115.0" etag="iTcjQSbUhq3fJKCVuTPI" version="21.7.4" type="device">
  <diagram name="Page-1" id="rbiAURCJBO50GAfIWupv">
    <mxGraphModel dx="1192" dy="738" grid="1" gridSize="10" guides="1" tooltips="1" connect="1" arrows="1" fold="1" page="1" pageScale="1" pageWidth="850" pageHeight="1100" math="0" shadow="0">
      <root>
        <mxCell id="0" />
        <mxCell id="1" parent="0" />
        <mxCell id="KcRWzpYTXMaMupj5c8Zm-1" value="CoreWCF Transport layer" style="shape=umlLifeline;perimeter=lifelinePerimeter;whiteSpace=wrap;html=1;container=1;dropTarget=0;collapsible=0;recursiveResize=0;outlineConnect=0;portConstraint=eastwest;newEdgeStyle={&quot;curved&quot;:0,&quot;rounded&quot;:0};" parent="1" vertex="1">
          <mxGeometry x="170" y="120" width="100" height="1300" as="geometry" />
        </mxCell>
        <mxCell id="KcRWzpYTXMaMupj5c8Zm-2" value="Header Verification" style="shape=umlLifeline;perimeter=lifelinePerimeter;whiteSpace=wrap;html=1;container=1;dropTarget=0;collapsible=0;recursiveResize=0;outlineConnect=0;portConstraint=eastwest;newEdgeStyle={&quot;curved&quot;:0,&quot;rounded&quot;:0};" parent="1" vertex="1">
          <mxGeometry x="340" y="120" width="100" height="1000" as="geometry" />
        </mxCell>
        <mxCell id="KcRWzpYTXMaMupj5c8Zm-42" value="" style="html=1;points=[[0,0,0,0,5],[0,1,0,0,-5],[1,0,0,0,5],[1,1,0,0,-5]];perimeter=orthogonalPerimeter;outlineConnect=0;targetShapes=umlLifeline;portConstraint=eastwest;newEdgeStyle={&quot;curved&quot;:0,&quot;rounded&quot;:0};" parent="KcRWzpYTXMaMupj5c8Zm-2" vertex="1">
          <mxGeometry x="10" y="520" width="10" height="80" as="geometry" />
        </mxCell>
        <mxCell id="KcRWzpYTXMaMupj5c8Zm-3" value="Token Generator (SCT Generator)" style="shape=umlLifeline;perimeter=lifelinePerimeter;whiteSpace=wrap;html=1;container=1;dropTarget=0;collapsible=0;recursiveResize=0;outlineConnect=0;portConstraint=eastwest;newEdgeStyle={&quot;curved&quot;:0,&quot;rounded&quot;:0};" parent="1" vertex="1">
          <mxGeometry x="630" y="120" width="100" height="570" as="geometry" />
        </mxCell>
        <mxCell id="KcRWzpYTXMaMupj5c8Zm-6" value="" style="endArrow=classic;html=1;rounded=0;" parent="1" edge="1">
          <mxGeometry width="50" height="50" relative="1" as="geometry">
            <mxPoint x="30.25" y="205" as="sourcePoint" />
            <mxPoint x="219.75" y="205" as="targetPoint" />
          </mxGeometry>
        </mxCell>
        <mxCell id="KcRWzpYTXMaMupj5c8Zm-7" value="SOAP RST Request" style="text;html=1;align=center;verticalAlign=middle;resizable=0;points=[];autosize=1;strokeColor=none;fillColor=none;" parent="1" vertex="1">
          <mxGeometry x="50" y="180" width="130" height="30" as="geometry" />
        </mxCell>
        <mxCell id="KcRWzpYTXMaMupj5c8Zm-10" value="" style="endArrow=none;html=1;rounded=0;strokeWidth=3;" parent="1" source="KcRWzpYTXMaMupj5c8Zm-64" edge="1">
          <mxGeometry width="50" height="50" relative="1" as="geometry">
            <mxPoint x="120" y="1348" as="sourcePoint" />
            <mxPoint x="120" y="40" as="targetPoint" />
          </mxGeometry>
        </mxCell>
        <mxCell id="KcRWzpYTXMaMupj5c8Zm-11" value="&lt;font style=&quot;font-size: 16px;&quot;&gt;CoreWCF Framework&lt;/font&gt;" style="rounded=0;whiteSpace=wrap;html=1;fillColor=#dae8fc;strokeColor=#6c8ebf;" parent="1" vertex="1">
          <mxGeometry x="140" y="50" width="950" height="30" as="geometry" />
        </mxCell>
        <mxCell id="KcRWzpYTXMaMupj5c8Zm-16" value="&lt;div&gt;Validate Signature&amp;nbsp;&lt;/div&gt;&lt;div&gt;(Using Asymmetric key)&lt;/div&gt;" style="html=1;verticalAlign=bottom;endArrow=block;curved=0;rounded=0;entryX=0;entryY=0;entryDx=0;entryDy=5;" parent="1" target="KcRWzpYTXMaMupj5c8Zm-15" edge="1">
          <mxGeometry relative="1" as="geometry">
            <mxPoint x="390" y="363" as="sourcePoint" />
          </mxGeometry>
        </mxCell>
        <mxCell id="KcRWzpYTXMaMupj5c8Zm-17" value="return" style="html=1;verticalAlign=bottom;endArrow=open;dashed=1;endSize=8;curved=0;rounded=0;exitX=0;exitY=1;exitDx=0;exitDy=-5;" parent="1" source="KcRWzpYTXMaMupj5c8Zm-15" edge="1">
          <mxGeometry relative="1" as="geometry">
            <mxPoint x="390" y="433" as="targetPoint" />
          </mxGeometry>
        </mxCell>
        <mxCell id="KcRWzpYTXMaMupj5c8Zm-18" value="" style="html=1;points=[[0,0,0,0,5],[0,1,0,0,-5],[1,0,0,0,5],[1,1,0,0,-5]];perimeter=orthogonalPerimeter;outlineConnect=0;targetShapes=umlLifeline;portConstraint=eastwest;newEdgeStyle={&quot;curved&quot;:0,&quot;rounded&quot;:0};" parent="1" vertex="1">
          <mxGeometry x="510" y="205" width="10" height="80" as="geometry" />
        </mxCell>
        <mxCell id="KcRWzpYTXMaMupj5c8Zm-19" value="Validate Client Cred" style="html=1;verticalAlign=bottom;endArrow=block;curved=0;rounded=0;entryX=0;entryY=0;entryDx=0;entryDy=5;" parent="1" target="KcRWzpYTXMaMupj5c8Zm-18" edge="1">
          <mxGeometry relative="1" as="geometry">
            <mxPoint x="390" y="210" as="sourcePoint" />
          </mxGeometry>
        </mxCell>
        <mxCell id="KcRWzpYTXMaMupj5c8Zm-20" value="return" style="html=1;verticalAlign=bottom;endArrow=open;dashed=1;endSize=8;curved=0;rounded=0;exitX=0;exitY=1;exitDx=0;exitDy=-5;" parent="1" source="KcRWzpYTXMaMupj5c8Zm-18" edge="1">
          <mxGeometry relative="1" as="geometry">
            <mxPoint x="390" y="280" as="targetPoint" />
          </mxGeometry>
        </mxCell>
        <mxCell id="KcRWzpYTXMaMupj5c8Zm-27" value="" style="endArrow=none;html=1;rounded=0;" parent="1" source="KcRWzpYTXMaMupj5c8Zm-2" edge="1">
          <mxGeometry width="50" height="50" relative="1" as="geometry">
            <mxPoint x="380" y="360" as="sourcePoint" />
            <mxPoint x="390" y="290" as="targetPoint" />
          </mxGeometry>
        </mxCell>
        <mxCell id="KcRWzpYTXMaMupj5c8Zm-28" value="&lt;font style=&quot;font-size: 14px;&quot;&gt;Success&lt;/font&gt;" style="text;html=1;strokeColor=none;fillColor=none;align=center;verticalAlign=middle;whiteSpace=wrap;rounded=0;rotation=90;" parent="1" vertex="1">
          <mxGeometry x="350" y="320" width="60" height="30" as="geometry" />
        </mxCell>
        <mxCell id="KcRWzpYTXMaMupj5c8Zm-29" value="" style="endArrow=classic;html=1;rounded=0;" parent="1" source="KcRWzpYTXMaMupj5c8Zm-2" edge="1">
          <mxGeometry width="50" height="50" relative="1" as="geometry">
            <mxPoint x="290" y="450" as="sourcePoint" />
            <mxPoint x="220" y="433" as="targetPoint" />
          </mxGeometry>
        </mxCell>
        <mxCell id="KcRWzpYTXMaMupj5c8Zm-30" value="Header Verified" style="text;html=1;align=center;verticalAlign=middle;resizable=0;points=[];autosize=1;strokeColor=none;fillColor=none;" parent="1" vertex="1">
          <mxGeometry x="260" y="408" width="110" height="30" as="geometry" />
        </mxCell>
        <mxCell id="KcRWzpYTXMaMupj5c8Zm-31" value="" style="endArrow=classic;html=1;rounded=0;" parent="1" target="KcRWzpYTXMaMupj5c8Zm-3" edge="1">
          <mxGeometry width="50" height="50" relative="1" as="geometry">
            <mxPoint x="220" y="500" as="sourcePoint" />
            <mxPoint x="270" y="450" as="targetPoint" />
          </mxGeometry>
        </mxCell>
        <mxCell id="KcRWzpYTXMaMupj5c8Zm-32" value="&lt;font style=&quot;font-size: 13px;&quot;&gt;Request SCT (Symmetric Key)&lt;/font&gt;" style="edgeLabel;html=1;align=center;verticalAlign=middle;resizable=0;points=[];" parent="KcRWzpYTXMaMupj5c8Zm-31" vertex="1" connectable="0">
          <mxGeometry x="0.049" y="2" relative="1" as="geometry">
            <mxPoint as="offset" />
          </mxGeometry>
        </mxCell>
        <mxCell id="KcRWzpYTXMaMupj5c8Zm-37" value="" style="html=1;points=[[0,0,0,0,5],[0,1,0,0,-5],[1,0,0,0,5],[1,1,0,0,-5]];perimeter=orthogonalPerimeter;outlineConnect=0;targetShapes=umlLifeline;portConstraint=eastwest;newEdgeStyle={&quot;curved&quot;:0,&quot;rounded&quot;:0};" parent="1" vertex="1">
          <mxGeometry x="810" y="500" width="10" height="80" as="geometry" />
        </mxCell>
        <mxCell id="KcRWzpYTXMaMupj5c8Zm-38" value="&lt;font style=&quot;font-size: 13px;&quot;&gt;Generate Session Token&lt;/font&gt;" style="html=1;verticalAlign=bottom;startArrow=oval;endArrow=block;startSize=8;curved=0;rounded=0;entryX=0;entryY=0;entryDx=0;entryDy=5;" parent="1" target="KcRWzpYTXMaMupj5c8Zm-37" edge="1">
          <mxGeometry relative="1" as="geometry">
            <mxPoint x="690" y="505" as="sourcePoint" />
            <mxPoint as="offset" />
          </mxGeometry>
        </mxCell>
        <mxCell id="KcRWzpYTXMaMupj5c8Zm-39" value="" style="endArrow=classic;html=1;rounded=0;exitX=0;exitY=1;exitDx=0;exitDy=-5;exitPerimeter=0;" parent="1" source="KcRWzpYTXMaMupj5c8Zm-37" target="KcRWzpYTXMaMupj5c8Zm-3" edge="1">
          <mxGeometry width="50" height="50" relative="1" as="geometry">
            <mxPoint x="670" y="590" as="sourcePoint" />
            <mxPoint x="720" y="540" as="targetPoint" />
          </mxGeometry>
        </mxCell>
        <mxCell id="KcRWzpYTXMaMupj5c8Zm-40" value="" style="endArrow=classic;html=1;rounded=0;exitX=0.48;exitY=0.823;exitDx=0;exitDy=0;exitPerimeter=0;" parent="1" source="KcRWzpYTXMaMupj5c8Zm-3" target="KcRWzpYTXMaMupj5c8Zm-1" edge="1">
          <mxGeometry width="50" height="50" relative="1" as="geometry">
            <mxPoint x="210" y="620" as="sourcePoint" />
            <mxPoint x="260" y="570" as="targetPoint" />
          </mxGeometry>
        </mxCell>
        <mxCell id="KcRWzpYTXMaMupj5c8Zm-41" value="Token Returned" style="text;html=1;align=center;verticalAlign=middle;resizable=0;points=[];autosize=1;strokeColor=none;fillColor=none;" parent="1" vertex="1">
          <mxGeometry x="445" y="568" width="110" height="30" as="geometry" />
        </mxCell>
        <mxCell id="KcRWzpYTXMaMupj5c8Zm-43" value="&lt;div&gt;Create SOAP Response +&amp;nbsp; &lt;br&gt;&lt;/div&gt;&lt;div&gt;Session Token + Server Entropy&lt;br&gt;&lt;/div&gt;" style="html=1;verticalAlign=bottom;endArrow=block;curved=0;rounded=0;entryX=0;entryY=0;entryDx=0;entryDy=5;entryPerimeter=0;" parent="1" source="KcRWzpYTXMaMupj5c8Zm-1" target="KcRWzpYTXMaMupj5c8Zm-42" edge="1">
          <mxGeometry x="0.1954" relative="1" as="geometry">
            <mxPoint x="220" y="640" as="sourcePoint" />
            <mxPoint x="370" y="640" as="targetPoint" />
            <mxPoint as="offset" />
          </mxGeometry>
        </mxCell>
        <mxCell id="KcRWzpYTXMaMupj5c8Zm-44" value="return" style="html=1;verticalAlign=bottom;endArrow=open;dashed=1;endSize=8;curved=0;rounded=0;exitX=0;exitY=1;exitDx=0;exitDy=-5;" parent="1" source="KcRWzpYTXMaMupj5c8Zm-42" target="KcRWzpYTXMaMupj5c8Zm-1" edge="1">
          <mxGeometry relative="1" as="geometry">
            <mxPoint x="220" y="685" as="targetPoint" />
          </mxGeometry>
        </mxCell>
        <mxCell id="KcRWzpYTXMaMupj5c8Zm-45" value="" style="endArrow=classic;html=1;rounded=0;" parent="1" edge="1">
          <mxGeometry width="50" height="50" relative="1" as="geometry">
            <mxPoint x="220" y="720" as="sourcePoint" />
            <mxPoint x="30" y="720" as="targetPoint" />
          </mxGeometry>
        </mxCell>
        <mxCell id="KcRWzpYTXMaMupj5c8Zm-46" value="&lt;div style=&quot;font-size: 13px;&quot;&gt;&lt;font style=&quot;font-size: 13px;&quot;&gt;Return SOAP&amp;nbsp;&lt;/font&gt;&lt;/div&gt;&lt;div style=&quot;font-size: 13px;&quot;&gt;&lt;font style=&quot;font-size: 13px;&quot;&gt;RST response&lt;/font&gt;&lt;/div&gt;" style="text;html=1;align=center;verticalAlign=middle;resizable=0;points=[];autosize=1;strokeColor=none;fillColor=none;" parent="1" vertex="1">
          <mxGeometry x="50" y="680" width="110" height="40" as="geometry" />
        </mxCell>
        <mxCell id="KcRWzpYTXMaMupj5c8Zm-47" value="" style="endArrow=classic;html=1;rounded=0;" parent="1" target="KcRWzpYTXMaMupj5c8Zm-1" edge="1">
          <mxGeometry width="50" height="50" relative="1" as="geometry">
            <mxPoint x="40" y="810" as="sourcePoint" />
            <mxPoint x="90" y="760" as="targetPoint" />
          </mxGeometry>
        </mxCell>
        <mxCell id="KcRWzpYTXMaMupj5c8Zm-48" value="SOAP Service Request" style="text;html=1;align=center;verticalAlign=middle;resizable=0;points=[];autosize=1;strokeColor=none;fillColor=none;" parent="1" vertex="1">
          <mxGeometry x="50" y="788" width="150" height="30" as="geometry" />
        </mxCell>
        <mxCell id="KcRWzpYTXMaMupj5c8Zm-49" value="" style="endArrow=classic;html=1;rounded=0;" parent="1" target="KcRWzpYTXMaMupj5c8Zm-2" edge="1">
          <mxGeometry width="50" height="50" relative="1" as="geometry">
            <mxPoint x="220" y="230" as="sourcePoint" />
            <mxPoint x="270" y="180" as="targetPoint" />
          </mxGeometry>
        </mxCell>
        <mxCell id="KcRWzpYTXMaMupj5c8Zm-51" value="&lt;div&gt;Validate Signature&amp;nbsp;&lt;/div&gt;&lt;div&gt;(Symmetric Mode)&lt;/div&gt;" style="html=1;verticalAlign=bottom;endArrow=block;curved=0;rounded=0;entryX=0;entryY=0;entryDx=0;entryDy=5;" parent="1" target="KcRWzpYTXMaMupj5c8Zm-50" edge="1">
          <mxGeometry x="-0.3443" y="15" relative="1" as="geometry">
            <mxPoint x="400" y="845" as="sourcePoint" />
            <mxPoint as="offset" />
          </mxGeometry>
        </mxCell>
        <mxCell id="KcRWzpYTXMaMupj5c8Zm-52" value="return" style="html=1;verticalAlign=bottom;endArrow=open;dashed=1;endSize=8;curved=0;rounded=0;exitX=0;exitY=1;exitDx=0;exitDy=-5;" parent="1" source="KcRWzpYTXMaMupj5c8Zm-50" edge="1">
          <mxGeometry relative="1" as="geometry">
            <mxPoint x="400" y="915" as="targetPoint" />
          </mxGeometry>
        </mxCell>
        <mxCell id="KcRWzpYTXMaMupj5c8Zm-53" value="" style="endArrow=classic;html=1;rounded=0;" parent="1" target="KcRWzpYTXMaMupj5c8Zm-2" edge="1">
          <mxGeometry width="50" height="50" relative="1" as="geometry">
            <mxPoint x="220" y="840" as="sourcePoint" />
            <mxPoint x="270" y="790" as="targetPoint" />
          </mxGeometry>
        </mxCell>
        <mxCell id="KcRWzpYTXMaMupj5c8Zm-54" value="" style="endArrow=classic;html=1;rounded=0;" parent="1" target="KcRWzpYTXMaMupj5c8Zm-1" edge="1">
          <mxGeometry width="50" height="50" relative="1" as="geometry">
            <mxPoint x="389.5" y="926" as="sourcePoint" />
            <mxPoint x="270" y="926" as="targetPoint" />
          </mxGeometry>
        </mxCell>
        <mxCell id="KcRWzpYTXMaMupj5c8Zm-55" value="" style="endArrow=classic;html=1;rounded=0;" parent="1" target="KcRWzpYTXMaMupj5c8Zm-4" edge="1">
          <mxGeometry width="50" height="50" relative="1" as="geometry">
            <mxPoint x="220" y="1000" as="sourcePoint" />
            <mxPoint x="270" y="950" as="targetPoint" />
          </mxGeometry>
        </mxCell>
        <mxCell id="cnYdj__asuFC8Jmr66hW-37" value="Invoke&amp;nbsp; User Service " style="edgeLabel;html=1;align=center;verticalAlign=middle;resizable=0;points=[];" vertex="1" connectable="0" parent="KcRWzpYTXMaMupj5c8Zm-55">
          <mxGeometry x="-0.1483" y="2" relative="1" as="geometry">
            <mxPoint as="offset" />
          </mxGeometry>
        </mxCell>
        <mxCell id="KcRWzpYTXMaMupj5c8Zm-59" value="&lt;font style=&quot;font-size: 15px;&quot;&gt;Customer Service Logic&lt;/font&gt;" style="rounded=0;whiteSpace=wrap;html=1;fillColor=#fff2cc;strokeColor=#d6b656;" parent="1" vertex="1">
          <mxGeometry x="1210" y="60" width="250" height="30" as="geometry" />
        </mxCell>
        <mxCell id="KcRWzpYTXMaMupj5c8Zm-63" value="" style="endArrow=classic;html=1;rounded=0;" parent="1" source="KcRWzpYTXMaMupj5c8Zm-1" edge="1">
          <mxGeometry width="50" height="50" relative="1" as="geometry">
            <mxPoint x="100" y="1170" as="sourcePoint" />
            <mxPoint x="40" y="1120" as="targetPoint" />
          </mxGeometry>
        </mxCell>
        <mxCell id="KcRWzpYTXMaMupj5c8Zm-65" value="" style="endArrow=none;html=1;rounded=0;" parent="1" target="KcRWzpYTXMaMupj5c8Zm-64" edge="1">
          <mxGeometry width="50" height="50" relative="1" as="geometry">
            <mxPoint x="120" y="1348" as="sourcePoint" />
            <mxPoint x="120" y="40" as="targetPoint" />
          </mxGeometry>
        </mxCell>
        <mxCell id="KcRWzpYTXMaMupj5c8Zm-64" value="&lt;div style=&quot;font-size: 13px;&quot;&gt;&lt;font style=&quot;font-size: 13px;&quot;&gt;Return SOAP&amp;nbsp;&lt;/font&gt;&lt;/div&gt;&lt;div style=&quot;font-size: 13px;&quot;&gt;&lt;font style=&quot;font-size: 13px;&quot;&gt;Service response&lt;/font&gt;&lt;/div&gt;" style="text;html=1;align=center;verticalAlign=middle;resizable=0;points=[];autosize=1;strokeColor=none;fillColor=none;" parent="1" vertex="1">
          <mxGeometry x="65" y="1070" width="120" height="40" as="geometry" />
        </mxCell>
        <mxCell id="KcRWzpYTXMaMupj5c8Zm-66" value="&lt;font style=&quot;font-size: 16px;&quot;&gt;Client&lt;/font&gt;" style="rounded=0;whiteSpace=wrap;html=1;fillColor=#d5e8d4;strokeColor=#82b366;" parent="1" vertex="1">
          <mxGeometry x="10" y="50" width="100" height="40" as="geometry" />
        </mxCell>
        <mxCell id="cnYdj__asuFC8Jmr66hW-2" value="SCT Cache" style="shape=umlLifeline;perimeter=lifelinePerimeter;whiteSpace=wrap;html=1;container=1;dropTarget=0;collapsible=0;recursiveResize=0;outlineConnect=0;portConstraint=eastwest;newEdgeStyle={&quot;curved&quot;:0,&quot;rounded&quot;:0};" vertex="1" parent="1">
          <mxGeometry x="850" y="120" width="100" height="1030" as="geometry" />
        </mxCell>
        <mxCell id="cnYdj__asuFC8Jmr66hW-3" value="" style="html=1;points=[[0,0,0,0,5],[0,1,0,0,-5],[1,0,0,0,5],[1,1,0,0,-5]];perimeter=orthogonalPerimeter;outlineConnect=0;targetShapes=umlLifeline;portConstraint=eastwest;newEdgeStyle={&quot;curved&quot;:0,&quot;rounded&quot;:0};" vertex="1" parent="cnYdj__asuFC8Jmr66hW-2">
          <mxGeometry x="45" y="385" width="10" height="50" as="geometry" />
        </mxCell>
        <mxCell id="cnYdj__asuFC8Jmr66hW-16" value="" style="html=1;points=[[0,0,0,0,5],[0,1,0,0,-5],[1,0,0,0,5],[1,1,0,0,-5]];perimeter=orthogonalPerimeter;outlineConnect=0;targetShapes=umlLifeline;portConstraint=eastwest;newEdgeStyle={&quot;curved&quot;:0,&quot;rounded&quot;:0};" vertex="1" parent="cnYdj__asuFC8Jmr66hW-2">
          <mxGeometry x="45" y="730" width="10" height="50" as="geometry" />
        </mxCell>
        <mxCell id="cnYdj__asuFC8Jmr66hW-5" value="" style="endArrow=classic;html=1;rounded=0;exitX=0;exitY=1;exitDx=0;exitDy=-5;exitPerimeter=0;" edge="1" parent="1" source="cnYdj__asuFC8Jmr66hW-3" target="KcRWzpYTXMaMupj5c8Zm-37">
          <mxGeometry width="50" height="50" relative="1" as="geometry">
            <mxPoint x="810" y="600" as="sourcePoint" />
            <mxPoint x="860" y="550" as="targetPoint" />
          </mxGeometry>
        </mxCell>
        <mxCell id="cnYdj__asuFC8Jmr66hW-7" value="Return Session Token" style="edgeLabel;html=1;align=center;verticalAlign=middle;resizable=0;points=[];" vertex="1" connectable="0" parent="1">
          <mxGeometry x="900" y="570" as="geometry">
            <mxPoint x="-160" y="15" as="offset" />
          </mxGeometry>
        </mxCell>
        <mxCell id="KcRWzpYTXMaMupj5c8Zm-4" value="Dispatch Service" style="shape=umlLifeline;perimeter=lifelinePerimeter;whiteSpace=wrap;html=1;container=1;dropTarget=0;collapsible=0;recursiveResize=0;outlineConnect=0;portConstraint=eastwest;newEdgeStyle={&quot;curved&quot;:0,&quot;rounded&quot;:0};" parent="1" vertex="1">
          <mxGeometry x="990" y="120" width="100" height="1010" as="geometry" />
        </mxCell>
        <mxCell id="cnYdj__asuFC8Jmr66hW-10" value="" style="html=1;points=[[0,0,0,0,5],[0,1,0,0,-5],[1,0,0,0,5],[1,1,0,0,-5]];perimeter=orthogonalPerimeter;outlineConnect=0;targetShapes=umlLifeline;portConstraint=eastwest;newEdgeStyle={&quot;curved&quot;:0,&quot;rounded&quot;:0};" vertex="1" parent="KcRWzpYTXMaMupj5c8Zm-4">
          <mxGeometry x="45" y="880" width="10" height="80" as="geometry" />
        </mxCell>
        <mxCell id="cnYdj__asuFC8Jmr66hW-9" value="" style="shape=umlLifeline;perimeter=lifelinePerimeter;whiteSpace=wrap;html=1;container=1;dropTarget=0;collapsible=0;recursiveResize=0;outlineConnect=0;portConstraint=eastwest;newEdgeStyle={&quot;curved&quot;:0,&quot;rounded&quot;:0};" vertex="1" parent="1">
          <mxGeometry x="490" y="120" width="125" height="1000" as="geometry" />
        </mxCell>
        <mxCell id="KcRWzpYTXMaMupj5c8Zm-50" value="" style="html=1;points=[[0,0,0,0,5],[0,1,0,0,-5],[1,0,0,0,5],[1,1,0,0,-5]];perimeter=orthogonalPerimeter;outlineConnect=0;targetShapes=umlLifeline;portConstraint=eastwest;newEdgeStyle={&quot;curved&quot;:0,&quot;rounded&quot;:0};" parent="cnYdj__asuFC8Jmr66hW-9" vertex="1">
          <mxGeometry x="62.5" y="720" width="10" height="80" as="geometry" />
        </mxCell>
        <mxCell id="KcRWzpYTXMaMupj5c8Zm-15" value="" style="html=1;points=[[0,0,0,0,5],[0,1,0,0,-5],[1,0,0,0,5],[1,1,0,0,-5]];perimeter=orthogonalPerimeter;outlineConnect=0;targetShapes=umlLifeline;portConstraint=eastwest;newEdgeStyle={&quot;curved&quot;:0,&quot;rounded&quot;:0};" parent="cnYdj__asuFC8Jmr66hW-9" vertex="1">
          <mxGeometry x="57.5" y="240" width="10" height="80" as="geometry" />
        </mxCell>
        <mxCell id="cnYdj__asuFC8Jmr66hW-11" value="XML Signature Verify (Assymetric/ Symmetric)" style="text;html=1;strokeColor=none;fillColor=none;align=center;verticalAlign=middle;whiteSpace=wrap;rounded=0;" vertex="1" parent="1">
          <mxGeometry x="490" y="120" width="135" height="30" as="geometry" />
        </mxCell>
        <mxCell id="cnYdj__asuFC8Jmr66hW-12" value="" style="endArrow=classic;html=1;rounded=0;" edge="1" parent="1" target="cnYdj__asuFC8Jmr66hW-2">
          <mxGeometry width="50" height="50" relative="1" as="geometry">
            <mxPoint x="820" y="520" as="sourcePoint" />
            <mxPoint x="870" y="470" as="targetPoint" />
          </mxGeometry>
        </mxCell>
        <mxCell id="cnYdj__asuFC8Jmr66hW-13" value="Generate Symmetric Key and Associate Session Token and Save to Cache" style="text;html=1;strokeColor=none;fillColor=none;align=center;verticalAlign=middle;whiteSpace=wrap;rounded=0;" vertex="1" parent="1">
          <mxGeometry x="750" y="400" width="130" height="30" as="geometry" />
        </mxCell>
        <mxCell id="cnYdj__asuFC8Jmr66hW-14" value="" style="endArrow=classic;html=1;rounded=0;" edge="1" parent="1" source="cnYdj__asuFC8Jmr66hW-13">
          <mxGeometry width="50" height="50" relative="1" as="geometry">
            <mxPoint x="640" y="440" as="sourcePoint" />
            <mxPoint x="870" y="520" as="targetPoint" />
          </mxGeometry>
        </mxCell>
        <mxCell id="cnYdj__asuFC8Jmr66hW-15" value="" style="endArrow=classic;html=1;rounded=0;" edge="1" parent="1" target="cnYdj__asuFC8Jmr66hW-2">
          <mxGeometry width="50" height="50" relative="1" as="geometry">
            <mxPoint x="560" y="860" as="sourcePoint" />
            <mxPoint x="610" y="810" as="targetPoint" />
          </mxGeometry>
        </mxCell>
        <mxCell id="cnYdj__asuFC8Jmr66hW-17" value="Get Symmetric Key based on Session Token" style="text;html=1;strokeColor=none;fillColor=none;align=center;verticalAlign=middle;whiteSpace=wrap;rounded=0;" vertex="1" parent="1">
          <mxGeometry x="650" y="830" width="150" height="30" as="geometry" />
        </mxCell>
        <mxCell id="cnYdj__asuFC8Jmr66hW-18" value="" style="endArrow=classic;html=1;rounded=0;" edge="1" parent="1" target="KcRWzpYTXMaMupj5c8Zm-50">
          <mxGeometry width="50" height="50" relative="1" as="geometry">
            <mxPoint x="899.5" y="895" as="sourcePoint" />
            <mxPoint x="620" y="895" as="targetPoint" />
          </mxGeometry>
        </mxCell>
        <mxCell id="cnYdj__asuFC8Jmr66hW-19" value="Symmetric Key returned" style="edgeLabel;html=1;align=center;verticalAlign=middle;resizable=0;points=[];" vertex="1" connectable="0" parent="cnYdj__asuFC8Jmr66hW-18">
          <mxGeometry x="0.1958" y="3" relative="1" as="geometry">
            <mxPoint as="offset" />
          </mxGeometry>
        </mxCell>
        <mxCell id="cnYdj__asuFC8Jmr66hW-20" value="" style="ellipse;html=1;shape=endState;fillColor=#000000;strokeColor=#ff0000;" vertex="1" parent="1">
          <mxGeometry x="160" y="290" width="30" height="30" as="geometry" />
        </mxCell>
        <mxCell id="cnYdj__asuFC8Jmr66hW-21" value="Failure (Default generic message without further details)" style="text;html=1;strokeColor=none;fillColor=none;align=center;verticalAlign=middle;whiteSpace=wrap;rounded=0;" vertex="1" parent="1">
          <mxGeometry x="130" y="350" width="90" height="30" as="geometry" />
        </mxCell>
        <mxCell id="cnYdj__asuFC8Jmr66hW-22" value="" style="endArrow=classic;html=1;rounded=0;entryX=1;entryY=0.5;entryDx=0;entryDy=0;strokeColor=#bb271a;strokeWidth=2;" edge="1" parent="1" target="cnYdj__asuFC8Jmr66hW-20">
          <mxGeometry width="50" height="50" relative="1" as="geometry">
            <mxPoint x="390" y="300" as="sourcePoint" />
            <mxPoint x="280" y="280" as="targetPoint" />
          </mxGeometry>
        </mxCell>
        <mxCell id="cnYdj__asuFC8Jmr66hW-23" value="&lt;div&gt;Failed&lt;/div&gt;" style="edgeLabel;html=1;align=center;verticalAlign=middle;resizable=0;points=[];" vertex="1" connectable="0" parent="cnYdj__asuFC8Jmr66hW-22">
          <mxGeometry x="-0.2122" y="-3" relative="1" as="geometry">
            <mxPoint as="offset" />
          </mxGeometry>
        </mxCell>
        <mxCell id="cnYdj__asuFC8Jmr66hW-24" value="&lt;font style=&quot;font-size: 14px;&quot;&gt;Success&lt;/font&gt;" style="text;html=1;strokeColor=none;fillColor=none;align=center;verticalAlign=middle;whiteSpace=wrap;rounded=0;rotation=90;" vertex="1" parent="1">
          <mxGeometry x="190" y="460" width="60" height="30" as="geometry" />
        </mxCell>
        <mxCell id="cnYdj__asuFC8Jmr66hW-26" value="" style="curved=1;endArrow=classic;html=1;rounded=0;strokeColor=#d90000;strokeWidth=2;" edge="1" parent="1" source="KcRWzpYTXMaMupj5c8Zm-1">
          <mxGeometry width="50" height="50" relative="1" as="geometry">
            <mxPoint x="110" y="450" as="sourcePoint" />
            <mxPoint x="160" y="400" as="targetPoint" />
            <Array as="points">
              <mxPoint x="160" y="450" />
              <mxPoint x="110" y="400" />
            </Array>
          </mxGeometry>
        </mxCell>
        <mxCell id="cnYdj__asuFC8Jmr66hW-27" value="Falied" style="text;html=1;align=center;verticalAlign=middle;resizable=0;points=[];autosize=1;strokeColor=none;fillColor=none;" vertex="1" parent="1">
          <mxGeometry x="140" y="418" width="60" height="30" as="geometry" />
        </mxCell>
        <mxCell id="cnYdj__asuFC8Jmr66hW-28" value="" style="endArrow=classic;html=1;rounded=0;exitX=0;exitY=0.5;exitDx=0;exitDy=0;strokeColor=#d92e1f;strokeWidth=2;" edge="1" parent="1" source="cnYdj__asuFC8Jmr66hW-20">
          <mxGeometry width="50" height="50" relative="1" as="geometry">
            <mxPoint x="50" y="330" as="sourcePoint" />
            <mxPoint x="50" y="305" as="targetPoint" />
          </mxGeometry>
        </mxCell>
        <mxCell id="cnYdj__asuFC8Jmr66hW-29" value="Failure (Default generic message without further details)" style="text;html=1;strokeColor=none;fillColor=none;align=center;verticalAlign=middle;whiteSpace=wrap;rounded=0;" vertex="1" parent="1">
          <mxGeometry x="120" y="930" width="90" height="30" as="geometry" />
        </mxCell>
        <mxCell id="cnYdj__asuFC8Jmr66hW-30" value="" style="ellipse;html=1;shape=endState;fillColor=#000000;strokeColor=#ff0000;" vertex="1" parent="1">
          <mxGeometry x="155" y="870" width="30" height="30" as="geometry" />
        </mxCell>
        <mxCell id="cnYdj__asuFC8Jmr66hW-31" value="&lt;font style=&quot;font-size: 14px;&quot;&gt;Success&lt;/font&gt;" style="text;html=1;strokeColor=none;fillColor=none;align=center;verticalAlign=middle;whiteSpace=wrap;rounded=0;rotation=90;" vertex="1" parent="1">
          <mxGeometry x="200" y="960" width="60" height="30" as="geometry" />
        </mxCell>
        <mxCell id="cnYdj__asuFC8Jmr66hW-34" value="" style="endArrow=classic;html=1;rounded=0;" edge="1" parent="1">
          <mxGeometry width="50" height="50" relative="1" as="geometry">
            <mxPoint x="219.5" y="891" as="sourcePoint" />
            <mxPoint x="170" y="890" as="targetPoint" />
          </mxGeometry>
        </mxCell>
        <mxCell id="cnYdj__asuFC8Jmr66hW-35" value="Failed" style="edgeLabel;html=1;align=center;verticalAlign=middle;resizable=0;points=[];" vertex="1" connectable="0" parent="cnYdj__asuFC8Jmr66hW-34">
          <mxGeometry x="-0.2536" y="1" relative="1" as="geometry">
            <mxPoint as="offset" />
          </mxGeometry>
        </mxCell>
        <mxCell id="cnYdj__asuFC8Jmr66hW-36" value="" style="endArrow=classic;html=1;rounded=0;exitX=0;exitY=0.5;exitDx=0;exitDy=0;strokeColor=#d92e1f;strokeWidth=2;" edge="1" parent="1">
          <mxGeometry width="50" height="50" relative="1" as="geometry">
            <mxPoint x="155" y="884.5" as="sourcePoint" />
            <mxPoint x="45" y="884.5" as="targetPoint" />
          </mxGeometry>
        </mxCell>
        <mxCell id="cnYdj__asuFC8Jmr66hW-38" value="" style="endArrow=none;html=1;rounded=0;strokeWidth=3;" edge="1" parent="1">
          <mxGeometry width="50" height="50" relative="1" as="geometry">
            <mxPoint x="1160" y="1189" as="sourcePoint" />
            <mxPoint x="1160" y="40" as="targetPoint" />
          </mxGeometry>
        </mxCell>
        <mxCell id="cnYdj__asuFC8Jmr66hW-39" value="&lt;font style=&quot;font-size: 14px;&quot;&gt;Service&lt;/font&gt;" style="rounded=0;whiteSpace=wrap;html=1;fillColor=#d5e8d4;strokeColor=#82b366;" vertex="1" parent="1">
          <mxGeometry x="555" y="10" width="100" height="40" as="geometry" />
        </mxCell>
        <mxCell id="cnYdj__asuFC8Jmr66hW-41" value="" style="endArrow=classic;html=1;rounded=0;" edge="1" parent="1">
          <mxGeometry width="50" height="50" relative="1" as="geometry">
            <mxPoint x="1050" y="1020" as="sourcePoint" />
            <mxPoint x="1210" y="1020" as="targetPoint" />
          </mxGeometry>
        </mxCell>
        <mxCell id="cnYdj__asuFC8Jmr66hW-44" value="Dispatch Service" style="edgeLabel;html=1;align=center;verticalAlign=middle;resizable=0;points=[];" vertex="1" connectable="0" parent="cnYdj__asuFC8Jmr66hW-41">
          <mxGeometry x="-0.2" y="4" relative="1" as="geometry">
            <mxPoint as="offset" />
          </mxGeometry>
        </mxCell>
        <mxCell id="cnYdj__asuFC8Jmr66hW-42" value="" style="html=1;points=[[0,0,0,0,5],[0,1,0,0,-5],[1,0,0,0,5],[1,1,0,0,-5]];perimeter=orthogonalPerimeter;outlineConnect=0;targetShapes=umlLifeline;portConstraint=eastwest;newEdgeStyle={&quot;curved&quot;:0,&quot;rounded&quot;:0};" vertex="1" parent="1">
          <mxGeometry x="1210" y="1020" width="10" height="50" as="geometry" />
        </mxCell>
        <mxCell id="cnYdj__asuFC8Jmr66hW-43" value="" style="endArrow=classic;html=1;rounded=0;exitX=0;exitY=1;exitDx=0;exitDy=-5;exitPerimeter=0;" edge="1" parent="1" source="cnYdj__asuFC8Jmr66hW-42" target="cnYdj__asuFC8Jmr66hW-10">
          <mxGeometry width="50" height="50" relative="1" as="geometry">
            <mxPoint x="820" y="1160" as="sourcePoint" />
            <mxPoint x="870" y="1110" as="targetPoint" />
          </mxGeometry>
        </mxCell>
        <mxCell id="cnYdj__asuFC8Jmr66hW-45" value="Get Result" style="edgeLabel;html=1;align=center;verticalAlign=middle;resizable=0;points=[];" vertex="1" connectable="0" parent="cnYdj__asuFC8Jmr66hW-43">
          <mxGeometry x="0.0909" y="-1" relative="1" as="geometry">
            <mxPoint as="offset" />
          </mxGeometry>
        </mxCell>
        <mxCell id="cnYdj__asuFC8Jmr66hW-46" value="" style="endArrow=classic;html=1;rounded=0;" edge="1" parent="1" source="KcRWzpYTXMaMupj5c8Zm-4" target="KcRWzpYTXMaMupj5c8Zm-1">
          <mxGeometry width="50" height="50" relative="1" as="geometry">
            <mxPoint x="250" y="1130" as="sourcePoint" />
            <mxPoint x="140" y="1060" as="targetPoint" />
          </mxGeometry>
        </mxCell>
        <mxCell id="cnYdj__asuFC8Jmr66hW-47" value="" style="endArrow=classic;html=1;rounded=0;" edge="1" parent="1" source="KcRWzpYTXMaMupj5c8Zm-4">
          <mxGeometry width="50" height="50" relative="1" as="geometry">
            <mxPoint x="330" y="1120" as="sourcePoint" />
            <mxPoint x="160" y="1070" as="targetPoint" />
          </mxGeometry>
        </mxCell>
        <mxCell id="cnYdj__asuFC8Jmr66hW-48" value="Populate Service Result + Header Metadata and return" style="text;html=1;align=center;verticalAlign=middle;resizable=0;points=[];autosize=1;strokeColor=none;fillColor=none;" vertex="1" parent="1">
          <mxGeometry x="470" y="1048" width="320" height="30" as="geometry" />
        </mxCell>
      </root>
    </mxGraphModel>
  </diagram>
</mxfile>
